PathFileType	4	(X/Y/Z)	Patient4_TMGait_0pt7_01_right_01.trc.trc
DataRate	CameraRate	NumFrames	NumMarkers	Units	OrigDataRate	OrigDataStartFrame	OrigNumFrames
85.889570552147	85.889570552147	6	33	mm	85.889570552147	71	       141
Frame#	Time	Sacral			L.Shoulder			Chest			R.Shoulder			Neck			R.ASIS			L.ASIS			R.Thigh.Superior			R.Thigh.Lateral			R.Thigh.Inferior			R.Patella			L.Thigh.Superior			L.Thigh.Lateral			L.Thigh.Inferior			L.Patella			L.Shank.Superior			L.Shank.Lateral			L.Shank.Inferior			R.Shank.Superior			R.Shank.Lateral			R.Shank.Inferior			R.Heel			R.Midfoot.Superior			R.Midfoot.Lateral			R.Toe			L.Heel			L.Midfoot.Lateral			L.Midfoot.Superior			L.Toe			L.Elbow			L.Wrist			R.Elbow			R.Wrist			
		X1	Y1	Z1	X2	Y2	Z2	X3	Y3	Z3	X4	Y4	Z4	X5	Y5	Z5	X6	Y6	Z6	X7	Y7	Z7	X8	Y8	Z8	X9	Y9	Z9	X10	Y10	Z10	X11	Y11	Z11	X12	Y12	Z12	X13	Y13	Z13	X14	Y14	Z14	X15	Y15	Z15	X16	Y16	Z16	X17	Y17	Z17	X18	Y18	Z18	X19	Y19	Z19	X20	Y20	Z20	X21	Y21	Z21	X22	Y22	Z22	X23	Y23	Z23	X24	Y24	Z24	X25	Y25	Z25	X26	Y26	Z26	X27	Y27	Z27	X28	Y28	Z28	X29	Y29	Z29	X30	Y30	Z30	X31	Y31	Z31	X32	Y32	Z32	X33	Y33	Z33	

71	1.365000000000	765.936527783558	1002.752004977243	561.346375441280	945.482846192957	1421.847887831018	371.831395774174	1053.685340248447	1349.733071475447	529.544762133073	980.252603353123	1432.042738362468	704.624085191644	954.201449296799	1485.598881004001	528.667534705965	990.321528022643	936.715052034429	679.342557423470	977.428060491415	946.145527456033	402.642790617992	987.578232415128	724.661110407291	654.732973098021	877.916170098486	632.128616098823	710.100751003029	940.938902338232	565.576501524986	633.746142341649	921.405211629679	480.909747906611	636.471008620786	1050.845936517547	771.295140095057	436.328904400470	1009.130639467876	642.160411041170	353.610542325881	1113.992824682415	587.482354539465	415.695269506422	1143.307297051787	523.085107915636	412.197632858419	1128.767008169524	449.574522011655	402.745616733878	1065.914677017564	317.157487515715	354.929963387850	1156.898848330703	221.679909011351	409.589248941125	883.481787534934	397.882919926757	640.535031317077	798.682514338214	301.960893640274	698.532438138277	831.848589428488	204.010995015312	634.016118315052	685.599385740697	44.740206958504	593.074416465584	855.979414181461	97.377915759156	638.709783554248	764.595700251110	37.105663013566	671.558781878935	973.378848862289	41.241721504654	672.222945368550	1079.368150032429	42.800796100879	451.855413293401	1153.084514680854	46.224013695979	371.485074794576	1223.041720285900	124.017675149871	390.136418689282	1356.486340064907	95.272111202471	364.743156657704	805.825733954017	1096.516637108758	280.072785645846	755.632753237429	845.292066498954	280.500436586618	1097.181730991650	1120.074074485631	830.115440260059	1295.605529556083	1248.071251876657	754.617831210489	
72	1.376642857143	767.088725480971	1001.669416614150	559.094819564134	945.237179122668	1421.022220840468	369.474811808561	1053.621387365358	1349.353718893766	527.258742971561	979.668723101480	1431.533687771751	702.173844571706	953.552403959357	1484.780270392030	526.294317650084	991.147701568094	935.692398363587	677.477738088087	978.849730886043	944.879785057050	400.705623447992	987.207617121806	723.323138611847	653.421371376937	876.561967257223	631.548299758904	708.684738504339	939.219922701004	564.323746290983	632.659600506337	918.968075573977	479.332440132634	635.369526859733	1051.867867015773	769.203294121840	434.851620368857	1007.782128197628	639.425455518532	354.425705646994	1112.893546071669	584.776151745608	415.786072850687	1140.655293256064	519.523526748622	413.305993501241	1125.652019846775	445.737065478706	404.056321997720	1060.929420843556	313.716963018092	357.925009143519	1151.170076600193	217.748202545285	412.665069008275	879.845465261336	396.803463588788	639.591648398790	793.779596969605	302.119931191972	697.928305850779	825.420379156855	203.587644440287	633.639355806353	677.447755400704	45.162271552133	593.226337025772	848.005464042045	97.468448824866	638.822678599381	756.489082418541	37.205048260155	671.633214849576	965.287040943229	40.928753459319	672.324557896029	1071.306061401200	41.214459182967	456.615030538031	1143.922112662168	43.534189934722	375.120508731021	1215.909702265508	119.164033430743	393.425419671707	1348.397089273389	87.279987197012	365.864722881793	803.459028130554	1097.031362758228	278.301908683753	750.194257670758	846.309260825346	280.464717672718	1097.722549979462	1120.082953034935	827.563391881822	1288.562302584712	1256.761609386730	749.702726009803	
73	1.388285714286	768.332565162240	1000.572633944995	556.625232675333	945.055914990462	1420.179153641754	366.921324816578	1053.589346145667	1349.052162499722	524.851938268197	978.983473403581	1431.052243141766	699.592297777039	952.871024656775	1484.002591029597	523.712361096244	992.038753070048	934.663819912948	675.537246501619	980.489710823432	943.672814764667	398.745302817101	987.079174273622	722.000852587449	652.097435697058	875.516566545845	630.900540109518	707.149664840915	937.973990187950	563.033635341109	631.522235505442	917.061837244798	477.588014751964	634.230321073549	1053.168878499748	767.134956793015	433.381809582543	1006.702557694818	636.888732018862	355.162560640884	1111.946335777304	582.155007893760	416.010232291095	1137.984875216125	515.942078718003	414.630308196094	1122.498698028268	441.913790108004	405.430579434633	1055.916845899045	310.483575560505	360.434249908436	1144.927854085787	213.785696818554	415.578331218746	876.615723429259	395.619002876229	638.588556783432	789.125067938392	302.311868273398	697.209542003766	819.165811699923	203.167683117405	633.230093230412	669.298423516775	45.746261606867	593.404908257408	840.087463197346	97.560068962141	638.914605062434	748.402183291415	37.374639620266	671.728582230018	957.219657353689	40.621929537783	672.433352939988	1062.111090406296	39.759476272528	460.594446277307	1133.841986490224	41.099053177632	378.173870583541	1207.948173575039	114.308882866926	396.622777540237	1339.493803514802	79.061260521011	367.153591224937	801.740374404226	1097.150909229908	276.595081161902	745.679800905844	846.947385076075	280.277993674774	1097.546763614550	1119.833086776523	825.186604931941	1281.246301383789	1263.803753525133	745.014609890877	
74	1.399928571429	769.601383776130	999.530060543058	553.971352701379	944.959131678030	1419.347414793534	364.179823474236	1053.600473571655	1348.840508812573	522.333862406077	978.244151892372	1430.640853069310	696.891606665347	952.205915707740	1483.312157445346	520.922015852709	992.941239299822	933.675831266591	673.542748407417	982.273912191791	942.591443552857	396.787395657008	987.189014740509	720.746818565552	650.742220612473	874.840519716815	630.197950472631	705.498528853932	937.276510899113	561.744170819843	630.317135190825	915.787306859365	475.685192790728	633.076143824459	1054.676595435087	765.190140886569	431.945215888952	1005.929030352158	634.708076112214	355.672207684891	1111.122583019119	579.735462089278	416.284472857242	1135.341948924413	512.550098866881	416.020249444855	1119.419579752787	438.331047329748	406.730227480809	1051.165956377666	307.616406250303	362.253596386586	1138.527109899731	210.046803349903	418.162357898389	873.865174503517	394.348386276734	637.542890687497	784.773875253888	302.588815999898	696.386389210841	813.136758411990	202.797686336569	632.804191367646	661.171601234847	46.596776134567	593.613495753352	832.271299570267	97.661133369886	638.998468710130	740.347022951016	37.665217084113	671.845930825020	949.178194688505	40.317120138085	672.539469148434	1052.349549387254	38.527262141481	463.673157883350	1123.443879512757	39.045140936884	380.557269694728	1199.601262223770	109.771145486134	399.560895111842	1330.275000002932	71.186895645600	368.550457658956	800.664541146798	1096.885041851458	274.933768122389	742.143079868286	847.194705952812	279.894403706364	1096.538439668628	1119.311484185554	823.017563954947	1273.737542415863	1269.233372250102	740.570736576569	
75	1.411571428571	770.828556470680	998.619852150325	551.175691117474	944.959726374729	1418.572931577164	361.272205142159	1053.660705628629	1348.741661247110	519.720966116882	977.500953393147	1430.354273293637	694.090441987383	951.602671574514	1482.764651875018	517.939049564675	993.800447248304	932.788143878126	671.505649651803	984.114518946644	941.711910058480	394.844461789007	987.541992973607	719.627316323565	649.327253768934	874.610267638914	629.464118755065	703.740467557166	937.220108278622	560.504979408072	629.036324540331	915.262892802889	473.647682176048	631.950296778838	1056.301359887823	763.490791768440	430.545034275545	1005.489062243199	633.032034860956	355.813004227191	1110.387827435433	577.643175033454	416.505822101436	1132.774014384684	509.548790026259	417.295586296337	1116.500438106535	435.184706788198	407.812973717459	1046.867369391239	305.253013995189	363.241357905103	1132.226909910806	206.745855075826	420.277012133494	871.680960757459	393.025120662458	636.489074756754	780.796662171234	303.023851395631	695.482434558659	807.402543875424	202.543322467716	632.390335544749	653.102562387880	47.853084020416	593.854707158842	824.617794585936	97.787964117753	639.096007234407	732.342094274312	38.147638117893	671.983686807093	941.161044099824	40.004339332210	672.631659123429	1042.484279762050	37.578339619682	465.831441603282	1113.185809913725	37.443961405168	382.247730377550	1191.195412179306	105.813376266055	402.084912675638	1321.107615599425	64.153700239594	369.944570638979	800.235649080710	1096.270500312295	273.291250512257	739.656391334510	847.058703865707	279.272333206191	1094.573364398555	1118.520661884495	821.073943184120	1266.102387964411	1273.096133333970	736.385055371198	
76	1.423214285714	771.955637851911	997.920710572272	548.283289966529	945.062536246201	1417.913236300300	358.232485843271	1053.769421612988	1348.785217006227	517.036647376953	976.800319642735	1430.252565706523	691.213251409386	951.097437638920	1482.417559560425	514.795663692590	994.564668961134	932.068287697540	669.426429002364	985.920029858177	941.109190453906	392.912385861817	988.152620119780	718.716334647825	647.822598067427	874.911670347838	628.731279991499	701.893751608651	937.909923938061	559.372719558657	627.688373572202	915.617573651380	471.513170895117	630.919161832125	1057.940197771697	762.157493317917	429.154844253422	1005.376979781978	631.969163795587	355.474719924212	1109.691015715346	575.981905386433	416.560881434156	1130.304073695290	507.090227906185	418.276609620693	1113.772313780528	432.607040194508	408.556433355975	1043.079145752500	303.480468806317	363.345364419853	1126.161680448454	204.025574675963	421.831402507064	870.162384783596	391.695629675636	635.479330794319	777.279509938787	303.706039170198	694.534455599783	802.048597630294	202.486412225449	632.028590982057	645.144302206802	49.685524509455	594.129502694698	817.199351532009	97.966242407089	639.235287175343	724.413225442299	38.914528483649	672.137496969476	933.162769154540	39.667499295656	672.699356769900	1032.834984496891	36.930993809925	467.137630464145	1103.354162659243	36.306718128007	383.284400865814	1182.923024277708	102.605986679446	404.084451503281	1312.208969000998	58.317925242681	371.214166854686	800.462411742145	1095.367608048791	271.634504386388	738.305269634677	846.564495757173	278.377191696916	1091.527125407324	1117.483217347857	819.357178660930	1258.402717151259	1275.440598489191	732.467581940394	
